<svg width="28" height="28" viewBox="0 0 28 28" fill="none" xmlns="http://www.w3.org/2000/svg">
<rect width="28" height="28" rx="14" fill="#4A72FF"/>
<path d="M12.4226 16.7273V16.6591C12.4302 15.9356 12.5059 15.3598 12.6499 14.9318C12.7938 14.5038 12.9983 14.1572 13.2635 13.892C13.5286 13.6269 13.8468 13.3826 14.218 13.1591C14.4415 13.0227 14.6423 12.8617 14.8203 12.6761C14.9983 12.4867 15.1385 12.2689 15.2408 12.0227C15.3468 11.7765 15.3999 11.5038 15.3999 11.2045C15.3999 10.8333 15.3127 10.5114 15.1385 10.2386C14.9643 9.96591 14.7313 9.75568 14.4396 9.60795C14.148 9.46023 13.8241 9.38636 13.468 9.38636C13.1574 9.38636 12.8582 9.45076 12.5703 9.57955C12.2824 9.70833 12.0419 9.91098 11.8487 10.1875C11.6555 10.464 11.5438 10.8258 11.5135 11.2727H10.0817C10.112 10.6288 10.2786 10.0777 10.5817 9.61932C10.8885 9.16098 11.2919 8.81061 11.7919 8.56818C12.2957 8.32576 12.8544 8.20455 13.468 8.20455C14.1347 8.20455 14.7143 8.33712 15.2067 8.60227C15.7029 8.86742 16.0855 9.23106 16.3544 9.69318C16.6271 10.1553 16.7635 10.6818 16.7635 11.2727C16.7635 11.6894 16.6991 12.0663 16.5703 12.4034C16.4453 12.7405 16.2635 13.0417 16.0249 13.3068C15.79 13.572 15.5059 13.8068 15.1726 14.0114C14.8393 14.2197 14.5722 14.4394 14.3714 14.6705C14.1707 14.8977 14.0249 15.1686 13.9339 15.483C13.843 15.7973 13.7938 16.1894 13.7862 16.6591V16.7273H12.4226ZM13.1499 20.0909C12.8696 20.0909 12.629 19.9905 12.4283 19.7898C12.2275 19.589 12.1271 19.3485 12.1271 19.0682C12.1271 18.7879 12.2275 18.5473 12.4283 18.3466C12.629 18.1458 12.8696 18.0455 13.1499 18.0455C13.4302 18.0455 13.6707 18.1458 13.8714 18.3466C14.0722 18.5473 14.1726 18.7879 14.1726 19.0682C14.1726 19.2538 14.1252 19.4242 14.0305 19.5795C13.9396 19.7348 13.8165 19.8598 13.6612 19.9545C13.5097 20.0455 13.3393 20.0909 13.1499 20.0909Z" fill="white"/>
</svg>
